<svg width="255" height="101" viewBox="0 0 255 101" fill="none" xmlns="http://www.w3.org/2000/svg">
<path d="M42.6797 12.656H58.0397V20.528H56.1197L48.9677 50H34.6157L30.2477 29.264H29.7677L25.1597 50H10.8077L3.17569 20.528H1.25569V12.656H19.0157V20.528H17.1917L19.0637 32.768H19.5437L24.1037 12.656H37.9277L42.1517 32.768H42.6317L44.5037 20.528H42.6797V12.656ZM77.5292 50.672C72.5052 50.672 68.6172 49.568 65.8652 47.36C63.1452 45.152 61.7852 41.568 61.7852 36.608V20.528H59.3852V12.656H77.1452V20.528H75.2252V39.056C75.2252 40.112 75.4492 40.896 75.8972 41.408C76.3772 41.888 77.0812 42.128 78.0092 42.128C78.9372 42.128 79.6252 41.888 80.0732 41.408C80.5532 40.896 80.7932 40.112 80.7932 39.056V20.528H78.8732V12.656H95.3372V20.528H92.9372V36.608C92.9372 41.568 91.6092 45.152 88.9532 47.36C86.2972 49.568 82.4892 50.672 77.5292 50.672ZM97.0772 50V42.128H99.4772V20.528H97.0772V12.656H129.477V27.152H118.725V20.528H112.917V28.112H117.141V33.584H112.917V42.128H118.725V34.544H129.477V50H97.0772ZM158.944 12.656H174.688V20.528H172.288V50H158.8L144.736 28.352V42.128H147.04V50H131.296V42.128H133.696V20.528H131.296V12.656H148.624L161.248 31.904V20.528H158.944V12.656ZM211.762 42.128H213.682V50H194.866V42.128H197.746L196.978 38.288H190.45L189.682 42.128H192.562V50H176.146V42.128H178.066L186.178 12.656H203.65L211.762 42.128ZM191.506 33.2H195.922L193.954 23.648H193.474L191.506 33.2ZM251.154 42.128H253.554V50H240.45L233.25 35.12L231.042 36.944V42.128H233.346V50H215.202V42.128H217.602V20.528H215.202V12.656H233.346V20.528H231.042V26.864L238.482 20.528H235.458V12.656H253.314V20.528H250.914L242.898 27.152L251.154 42.128Z" fill="#E29360"/>
<path d="M63.8618 72.272H55.6058V68.528H52.5338V90.128H55.8938V98H35.7338V90.128H39.0938V68.528H36.0218V72.272H27.7658V60.656H63.8618V72.272ZM65.5069 98V90.128H67.9069V68.528H65.5069V60.656H97.9069V75.152H87.1549V68.528H81.3469V76.112H85.5709V81.584H81.3469V90.128H87.1549V82.544H97.9069V98H65.5069ZM127.374 60.656H143.118V68.528H140.718V98H127.23L113.166 76.352V90.128H115.47V98H99.7256V90.128H102.126V68.528H99.7256V60.656H117.054L129.678 79.904V68.528H127.374V60.656ZM180.192 90.128H182.112V98H163.296V90.128H166.176L165.408 86.288H158.88L158.112 90.128H160.992V98H144.576V90.128H146.496L154.608 60.656H172.08L180.192 90.128ZM159.936 81.2H164.352L162.384 71.648H161.904L159.936 81.2ZM211.28 60.656H227.024V68.528H224.624V98H211.136L197.072 76.352V90.128H199.376V98H183.632V90.128H186.032V68.528H183.632V60.656H200.96L213.584 79.904V68.528H211.28V60.656Z" fill="#E29360"/>
</svg>
